<?xml version="1.0" encoding="UTF-8" standalone="no" ?>
<!DOCTYPE svg PUBLIC "-//W3C//DTD SVG 1.1//EN" "http://www.w3.org/Graphics/SVG/1.1/DTD/svg11.dtd">
<svg xmlns="http://www.w3.org/2000/svg" xmlns:xlink="http://www.w3.org/1999/xlink" version="1.1" width="833.3333333333334" height="833.3333333333334" viewBox="0 0 833.33 833.33" xml:space="preserve">
<desc>Created with Fabric.js 2.7.0</desc>
<defs>
	<style type="text/css"><![CDATA[
		@font-face {
			font-family: 'Lemon Milk Bold';
			src: url('https://strapi.graphicsfactory.com/uploads/78c599899d0942d5bf8594cc2616f3bd.otf');
		}
]]></style>
</defs>
<g transform="matrix(0.85 0 0 0.85 416.67 395.04)" style=""  >
	<g transform="matrix(1 0 0 1 0 0)"  >
<circle style="stroke: rgb(0,0,0); stroke-width: 6.9; stroke-dasharray: none; stroke-linecap: round; stroke-dashoffset: 0; stroke-linejoin: round; stroke-miterlimit: 10; fill: rgb(255,255,255); fill-rule: nonzero; opacity: 1;"  cx="0" cy="0" r="273.333" />
</g>
	<g transform="matrix(1 0 0 1 322.15 174.01)"  >
<path style="stroke: rgb(0,0,0); stroke-width: 9; stroke-dasharray: none; stroke-linecap: round; stroke-dashoffset: 0; stroke-linejoin: round; stroke-miterlimit: 10; fill: rgb(255,255,255); fill-rule: nonzero; opacity: 1;"  transform=" translate(-778.98, -599.9)" d="M 822.477 543.887 H 736.03 c -1.07 18.508 -0.309 110.512 0 112.03 h 86.448 l -28.667 -56.015 L 822.477 543.887 z" stroke-linecap="round" />
</g>
	<g transform="matrix(1 0 0 1 295.76 213.85)"  >
<polygon style="stroke: rgb(0,0,0); stroke-width: 9; stroke-dasharray: none; stroke-linecap: round; stroke-dashoffset: 0; stroke-linejoin: round; stroke-miterlimit: 10; fill: rgb(255,255,255); fill-rule: nonzero; opacity: 1;"  points="15.86,-15.95 -15.86,15.95 -15.86,-15.95 " />
</g>
	<g transform="matrix(1 0 0 1 -322.15 174.01)"  >
<path style="stroke: rgb(0,0,0); stroke-width: 9; stroke-dasharray: none; stroke-linecap: round; stroke-dashoffset: 0; stroke-linejoin: round; stroke-miterlimit: 10; fill: rgb(255,255,255); fill-rule: nonzero; opacity: 1;"  transform=" translate(-134.68, -599.9)" d="M 91.181 543.887 h 86.448 c 1.07 18.508 0.309 110.512 0 112.03 H 91.181 l 28.667 -56.015 L 91.181 543.887 z" stroke-linecap="round" />
</g>
	<g transform="matrix(1 0 0 1 -295.76 213.85)"  >
<polygon style="stroke: rgb(0,0,0); stroke-width: 9; stroke-dasharray: none; stroke-linecap: round; stroke-dashoffset: 0; stroke-linejoin: round; stroke-miterlimit: 10; fill: rgb(255,255,255); fill-rule: nonzero; opacity: 1;"  points="-15.86,-15.95 15.86,15.95 15.86,-15.95 " />
</g>
	<g transform="matrix(1 0 0 1 -0.06 141.42)"  >
<rect style="stroke: rgb(0,0,0); stroke-width: 9; stroke-dasharray: none; stroke-linecap: round; stroke-dashoffset: 0; stroke-linejoin: round; stroke-miterlimit: 10; fill: rgb(255,255,255); fill-rule: nonzero; opacity: 1;"  x="-312" y="-56.015" rx="0" ry="0" width="624" height="112.03" />
</g>
	<g transform="matrix(1 0 0 1 0.89 -230.26)"  >
<polygon style="stroke: none; stroke-width: 1; stroke-dasharray: none; stroke-linecap: butt; stroke-dashoffset: 0; stroke-linejoin: miter; stroke-miterlimit: 4; fill: rgb(0,0,0); fill-rule: nonzero; opacity: 1;"  points="0,-29.81 9.68,-10.18 31.34,-7.04 15.67,8.24 19.37,29.81 0,19.62 -19.37,29.81 -15.67,8.24 -31.34,-7.04 -9.69,-10.18 " />
</g>
	<g transform="matrix(1 0 0 1 93.3 -199.31)"  >
<polygon style="stroke: none; stroke-width: 1; stroke-dasharray: none; stroke-linecap: butt; stroke-dashoffset: 0; stroke-linejoin: miter; stroke-miterlimit: 4; fill: rgb(0,0,0); fill-rule: nonzero; opacity: 1;"  points="11.32,-26.49 11.14,-7.77 26.46,2.98 8.61,8.6 3.11,26.49 -7.75,11.25 -26.46,11.55 -15.32,-3.49 -21.39,-21.19 -3.64,-15.24 " />
</g>
	<g transform="matrix(1 0 0 1 154.64 -140.54)"  >
<polygon style="stroke: none; stroke-width: 1; stroke-dasharray: none; stroke-linecap: butt; stroke-dashoffset: 0; stroke-linejoin: miter; stroke-miterlimit: 4; fill: rgb(0,0,0); fill-rule: nonzero; opacity: 1;"  points="22.19,-15.62 14.81,-0.57 23.02,14.03 6.43,11.67 -4.92,23.99 -7.79,7.48 -23.02,0.49 -8.21,-7.34 -6.27,-23.99 5.76,-12.32 " />
</g>
	<g transform="matrix(1 0 0 1 -93.3 -199.31)"  >
<polygon style="stroke: none; stroke-width: 1; stroke-dasharray: none; stroke-linecap: butt; stroke-dashoffset: 0; stroke-linejoin: miter; stroke-miterlimit: 4; fill: rgb(0,0,0); fill-rule: nonzero; opacity: 1;"  points="-11.32,-26.49 -11.14,-7.77 -26.46,2.98 -8.61,8.6 -3.11,26.49 7.75,11.25 26.46,11.55 15.32,-3.49 21.39,-21.19 3.64,-15.24 " />
</g>
	<g transform="matrix(1 0 0 1 -154.65 -140.54)"  >
<polygon style="stroke: none; stroke-width: 1; stroke-dasharray: none; stroke-linecap: butt; stroke-dashoffset: 0; stroke-linejoin: miter; stroke-miterlimit: 4; fill: rgb(0,0,0); fill-rule: nonzero; opacity: 1;"  points="-22.19,-15.62 -14.81,-0.57 -23.02,14.03 -6.43,11.67 4.92,23.99 7.79,7.48 23.02,0.49 8.21,-7.34 6.27,-23.99 -5.76,-12.32 " />
</g>
</g>
<g transform="matrix(4.76 0 0 4.76 417.36 392.61)" style="filter: url(#SVGID_12);"  >
<filter id="SVGID_12" y="-34%" height="168%" x="-30%" width="160%" >
	<feGaussianBlur in="SourceAlpha" stdDeviation="1.5"></feGaussianBlur>
	<feOffset dx="6" dy="2" result="oBlur" ></feOffset>
	<feFlood flood-color="rgb(185,16,32)" flood-opacity="1"/>
	<feComposite in2="oBlur" operator="in" />
	<feMerge>
		<feMergeNode></feMergeNode>
		<feMergeNode in="SourceGraphic"></feMergeNode>
	</feMerge>
</filter>
		<text xml:space="preserve" font-family="Lemon Milk Bold" font-size="32" font-style="normal" font-weight="normal" style="stroke: none; stroke-width: 1; stroke-dasharray: none; stroke-linecap: butt; stroke-dashoffset: 0; stroke-linejoin: miter; stroke-miterlimit: 4; fill: rgb(0,0,0); fill-rule: nonzero; opacity: 1; white-space: pre;" ><tspan x="-42.83" y="10.05" >SALE</tspan></text>
</g>
<g transform="matrix(2.6 0 0 2.6 416.67 523.9)" style=""  >
		<text xml:space="preserve" font-family="Lemon Milk Bold" font-size="32" font-style="normal" font-weight="normal" style="stroke: none; stroke-width: 1; stroke-dasharray: none; stroke-linecap: butt; stroke-dashoffset: 0; stroke-linejoin: miter; stroke-miterlimit: 4; fill: rgb(0,0,0); fill-rule: nonzero; opacity: 1; white-space: pre;" ><tspan x="-76.69" y="10.05" >50% off</tspan></text>
</g>
</svg>