<?xml version="1.0" encoding="UTF-8" standalone="no" ?>
<!DOCTYPE svg PUBLIC "-//W3C//DTD SVG 1.1//EN" "http://www.w3.org/Graphics/SVG/1.1/DTD/svg11.dtd">
<svg xmlns="http://www.w3.org/2000/svg" xmlns:xlink="http://www.w3.org/1999/xlink" version="1.1" width="833.3333333333334" height="833.3333333333334" viewBox="0 0 833.33 833.33" xml:space="preserve">
<desc>Created with Fabric.js 2.7.0</desc>
<defs>
	<style type="text/css"><![CDATA[
		@font-face {
			font-family: 'Lemon Milk Bold';
			src: url('https://strapi.graphicsfactory.com/uploads/78c599899d0942d5bf8594cc2616f3bd.otf');
		}
]]></style>
</defs>
<g transform="matrix(1.24 0 0 1.24 419.57 405.68)" style=""  >
	<g transform="matrix(1 0 0 1 -152.75 102.26)"  >
<path style="stroke: none; stroke-width: 1; stroke-dasharray: none; stroke-linecap: butt; stroke-dashoffset: 0; stroke-linejoin: miter; stroke-miterlimit: 4; fill: rgb(0,0,0); fill-rule: nonzero; opacity: 1;"  transform=" translate(-252.28, -537.35)" d="M 299.186 506.508 c -0.02 -0.029 -0.04 -0.059 -0.061 -0.089 c -1.653 -2.416 -4.916 -3.101 -7.372 -1.508 c -121.877 79.05 -112.795 92.437 6.113 9.061 C 300.288 512.275 300.857 508.948 299.186 506.508 z" stroke-linecap="round" />
</g>
	<g transform="matrix(1 0 0 1 -181.23 35.79)"  >
<path style="stroke: none; stroke-width: 1; stroke-dasharray: none; stroke-linecap: butt; stroke-dashoffset: 0; stroke-linejoin: miter; stroke-miterlimit: 4; fill: rgb(0,0,0); fill-rule: nonzero; opacity: 1;"  transform=" translate(-223.8, -470.87)" d="M 279.456 461.072 c -0.013 -0.06 -0.026 -0.12 -0.04 -0.18 c -0.642 -2.923 -3.464 -4.828 -6.406 -4.276 c -142.076 26.659 -138.644 42.899 2.29 11.069 C 278.277 467.012 280.114 464.051 279.456 461.072 z" stroke-linecap="round" />
</g>
	<g transform="matrix(1 0 0 1 -102.22 152.67)"  >
<path style="stroke: none; stroke-width: 1; stroke-dasharray: none; stroke-linecap: butt; stroke-dashoffset: 0; stroke-linejoin: miter; stroke-miterlimit: 4; fill: rgb(0,0,0); fill-rule: nonzero; opacity: 1;"  transform=" translate(-302.82, -587.76)" d="M 333.767 540.823 c -0.03 -0.02 -0.059 -0.04 -0.089 -0.06 c -2.437 -1.649 -5.743 -1.072 -7.433 1.337 c -83.527 119.099 -70.116 128.198 9.056 6.109 C 336.9 545.743 336.202 542.467 333.767 540.823 z" stroke-linecap="round" />
</g>
	<g transform="matrix(1 0 0 1 -181.65 -35.86)"  >
<path style="stroke: none; stroke-width: 1; stroke-dasharray: none; stroke-linecap: butt; stroke-dashoffset: 0; stroke-linejoin: miter; stroke-miterlimit: 4; fill: rgb(0,0,0); fill-rule: nonzero; opacity: 1;"  transform=" translate(-223.38, -399.22)" d="M 278.619 408.927 c 0.011 -0.062 0.023 -0.123 0.034 -0.185 c 0.549 -2.936 -1.292 -5.788 -4.206 -6.445 c -139.813 -31.509 -143.212 -15.41 -2.29 11.101 C 275.179 413.966 278.059 411.95 278.619 408.927 z" stroke-linecap="round" />
</g>
	<g transform="matrix(1 0 0 1 -153.72 -102.9)"  >
<path style="stroke: none; stroke-width: 1; stroke-dasharray: none; stroke-linecap: butt; stroke-dashoffset: 0; stroke-linejoin: miter; stroke-miterlimit: 4; fill: rgb(0,0,0); fill-rule: nonzero; opacity: 1;"  transform=" translate(-251.31, -332.18)" d="M 297.212 362.346 c 0.037 -0.057 0.073 -0.114 0.11 -0.17 c 1.578 -2.434 0.974 -5.676 -1.403 -7.339 c -116.414 -81.415 -125.281 -68.34 -6.156 9.133 C 292.264 365.596 295.593 364.852 297.212 362.346 z" stroke-linecap="round" />
</g>
	<g transform="matrix(1 0 0 1 102.65 153.34)"  >
<path style="stroke: none; stroke-width: 1; stroke-dasharray: none; stroke-linecap: butt; stroke-dashoffset: 0; stroke-linejoin: miter; stroke-miterlimit: 4; fill: rgb(0,0,0); fill-rule: nonzero; opacity: 1;"  transform=" translate(-507.68, -588.42)" d="M 477.413 542.036 c -0.053 0.034 -0.106 0.069 -0.159 0.103 c -2.496 1.617 -3.237 4.935 -1.617 7.429 c 78.091 120.202 91.287 111.252 9.105 -6.138 C 483.081 541.058 479.842 540.458 477.413 542.036 z" stroke-linecap="round" />
</g>
	<g transform="matrix(1 0 0 1 153.74 102.94)"  >
<path style="stroke: none; stroke-width: 1; stroke-dasharray: none; stroke-linecap: butt; stroke-dashoffset: 0; stroke-linejoin: miter; stroke-miterlimit: 4; fill: rgb(0,0,0); fill-rule: nonzero; opacity: 1;"  transform=" translate(-558.77, -538.02)" d="M 512.95 507.755 c -0.021 0.029 -0.042 0.059 -0.062 0.088 c -1.732 2.451 -1.091 5.858 1.369 7.578 c 116.257 81.291 125.113 68.239 6.163 -9.134 C 517.943 504.677 514.652 505.341 512.95 507.755 z" stroke-linecap="round" />
</g>
	<g transform="matrix(1 0 0 1 -35.75 180.98)"  >
<path style="stroke: none; stroke-width: 1; stroke-dasharray: none; stroke-linecap: butt; stroke-dashoffset: 0; stroke-linejoin: miter; stroke-miterlimit: 4; fill: rgb(0,0,0); fill-rule: nonzero; opacity: 1;"  transform=" translate(-369.29, -616.07)" d="M 379.249 560.182 c -0.036 -0.008 -0.072 -0.015 -0.108 -0.023 c -2.983 -0.636 -5.932 1.209 -6.605 4.184 c -32.009 141.557 -15.69 145.005 11.052 2.285 C 384.144 563.656 382.206 560.81 379.249 560.182 z" stroke-linecap="round" />
</g>
	<g transform="matrix(1 0 0 1 35.79 181.27)"  >
<path style="stroke: none; stroke-width: 1; stroke-dasharray: none; stroke-linecap: butt; stroke-dashoffset: 0; stroke-linejoin: miter; stroke-miterlimit: 4; fill: rgb(0,0,0); fill-rule: nonzero; opacity: 1;"  transform=" translate(-440.82, -616.35)" d="M 431.162 560.707 c -0.044 0.008 -0.088 0.017 -0.133 0.025 c -3.015 0.575 -5.021 3.452 -4.454 6.469 c 26.642 141.943 42.865 138.516 11.073 -2.286 C 436.986 561.986 434.111 560.142 431.162 560.707 z" stroke-linecap="round" />
</g>
	<g transform="matrix(1 0 0 1 -103.2 -154.13)"  >
<path style="stroke: none; stroke-width: 1; stroke-dasharray: none; stroke-linecap: butt; stroke-dashoffset: 0; stroke-linejoin: miter; stroke-miterlimit: 4; fill: rgb(0,0,0); fill-rule: nonzero; opacity: 1;"  transform=" translate(-301.83, -280.96)" d="M 331.746 326.461 c 0.03 -0.021 0.059 -0.042 0.089 -0.063 c 2.426 -1.707 3.094 -5.012 1.476 -7.498 c -76.746 -117.86 -89.676 -109.087 -9.161 6.181 C 325.873 327.548 329.287 328.194 331.746 326.461 z" stroke-linecap="round" />
</g>
	<g transform="matrix(1 0 0 1 103.64 -154.81)"  >
<path style="stroke: none; stroke-width: 1; stroke-dasharray: none; stroke-linecap: butt; stroke-dashoffset: 0; stroke-linejoin: miter; stroke-miterlimit: 4; fill: rgb(0,0,0); fill-rule: nonzero; opacity: 1;"  transform=" translate(-508.67, -280.27)" d="M 479.196 325.042 c 0.03 0.02 0.06 0.041 0.09 0.061 c 2.481 1.678 5.846 1.086 7.559 -1.371 c 79.154 -113.531 66.441 -122.154 -9.203 -6.208 C 476.007 320.03 476.716 323.368 479.196 325.042 z" stroke-linecap="round" />
</g>
	<g transform="matrix(1 0 0 1 154.74 -103.59)"  >
<path style="stroke: none; stroke-width: 1; stroke-dasharray: none; stroke-linecap: butt; stroke-dashoffset: 0; stroke-linejoin: miter; stroke-miterlimit: 4; fill: rgb(0,0,0); fill-rule: nonzero; opacity: 1;"  transform=" translate(-559.77, -331.49)" d="M 514.844 360.901 c 0.02 0.03 0.04 0.061 0.061 0.091 c 1.666 2.499 5.017 3.221 7.532 1.58 c 116.16 -75.768 107.519 -88.505 -6.205 -9.199 C 513.787 355.078 513.188 358.422 514.844 360.901 z" stroke-linecap="round" />
</g>
	<g transform="matrix(1 0 0 1 36.19 -183.32)"  >
<path style="stroke: none; stroke-width: 1; stroke-dasharray: none; stroke-linecap: butt; stroke-dashoffset: 0; stroke-linejoin: miter; stroke-miterlimit: 4; fill: rgb(0,0,0); fill-rule: nonzero; opacity: 1;"  transform=" translate(-441.22, -251.76)" d="M 431.848 305.318 c 0.037 0.007 0.074 0.015 0.11 0.022 c 3.012 0.602 5.963 -1.277 6.632 -4.275 c 30.216 -135.284 14.682 -138.565 -11.218 -2.317 C 426.792 301.797 428.804 304.713 431.848 305.318 z" stroke-linecap="round" />
</g>
	<g transform="matrix(1 0 0 1 182.63 36.07)"  >
<path style="stroke: none; stroke-width: 1; stroke-dasharray: none; stroke-linecap: butt; stroke-dashoffset: 0; stroke-linejoin: miter; stroke-miterlimit: 4; fill: rgb(0,0,0); fill-rule: nonzero; opacity: 1;"  transform=" translate(-587.67, -471.15)" d="M 533.445 461.54 c -0.008 0.036 -0.016 0.073 -0.025 0.109 c -0.684 3.024 1.271 6.024 4.296 6.702 c 137.046 30.718 140.375 14.963 2.311 -11.175 C 537.014 456.607 534.119 458.549 533.445 461.54 z" stroke-linecap="round" />
</g>
	<g transform="matrix(1 0 0 1 -36.14 -183.02)"  >
<path style="stroke: none; stroke-width: 1; stroke-dasharray: none; stroke-linecap: butt; stroke-dashoffset: 0; stroke-linejoin: miter; stroke-miterlimit: 4; fill: rgb(0,0,0); fill-rule: nonzero; opacity: 1;"  transform=" translate(-368.89, -252.06)" d="M 378.298 305.918 c 0.063 -0.014 0.127 -0.028 0.19 -0.042 c 2.957 -0.651 4.882 -3.509 4.317 -6.484 c -26.016 -137.125 -41.657 -133.821 -11.197 2.317 C 372.282 304.724 375.281 306.587 378.298 305.918 z" stroke-linecap="round" />
</g>
	<g transform="matrix(1 0 0 1 183.06 -36.14)"  >
<path style="stroke: none; stroke-width: 1; stroke-dasharray: none; stroke-linecap: butt; stroke-dashoffset: 0; stroke-linejoin: miter; stroke-miterlimit: 4; fill: rgb(0,0,0); fill-rule: nonzero; opacity: 1;"  transform=" translate(-588.1, -398.95)" d="M 534.248 408.215 c 0.008 0.042 0.016 0.084 0.024 0.126 c 0.584 3.055 3.502 5.084 6.558 4.504 c 136.978 -25.996 133.677 -41.619 -2.312 -11.202 C 535.545 402.307 533.673 405.224 534.248 408.215 z" stroke-linecap="round" />
</g>
	<g transform="matrix(1 0 0 1 -121.77 -128.08)"  >
<path style="stroke: none; stroke-width: 1; stroke-dasharray: none; stroke-linecap: butt; stroke-dashoffset: 0; stroke-linejoin: miter; stroke-miterlimit: 4; fill: rgb(0,0,0); fill-rule: nonzero; opacity: 1;"  transform=" translate(-283.26, -307.01)" d="M 307.053 327.368 c -60.689 -64.175 -66.665 -58.403 -4.106 3.998 c 1.093 1.09 2.856 1.083 3.963 0.007 c 0.013 -0.013 0.027 -0.026 0.04 -0.039 C 308.06 330.256 308.115 328.491 307.053 327.368 z" stroke-linecap="round" />
</g>
	<g transform="matrix(1 0 0 1 1.73 -179.38)"  >
<path style="stroke: none; stroke-width: 1; stroke-dasharray: none; stroke-linecap: butt; stroke-dashoffset: 0; stroke-linejoin: miter; stroke-miterlimit: 4; fill: rgb(0,0,0); fill-rule: nonzero; opacity: 1;"  transform=" translate(-406.76, -255.71)" d="M 409.506 287.671 c 1.422 -88.541 -6.653 -88.537 -5.562 -0.012 c 0.017 1.383 1.15 2.489 2.533 2.489 c 0.008 0 0.017 0 0.025 0 c 0.158 0 0.315 0 0.473 0.001 C 408.353 290.155 409.483 289.049 409.506 287.671 z" stroke-linecap="round" />
</g>
	<g transform="matrix(1 0 0 1 130.94 -128.08)"  >
<path style="stroke: none; stroke-width: 1; stroke-dasharray: none; stroke-linecap: butt; stroke-dashoffset: 0; stroke-linejoin: miter; stroke-miterlimit: 4; fill: rgb(0,0,0); fill-rule: nonzero; opacity: 1;"  transform=" translate(-535.97, -307.01)" d="M 515.608 330.798 c 64.175 -60.689 58.403 -66.665 -3.998 -4.106 c -1.09 1.093 -1.083 2.856 -0.007 3.963 c 0.013 0.013 0.026 0.027 0.039 0.04 C 512.72 331.805 514.485 331.861 515.608 330.798 z" stroke-linecap="round" />
</g>
	<g transform="matrix(1 0 0 1 164.9 63.97)"  >
<path style="stroke: none; stroke-width: 1; stroke-dasharray: none; stroke-linecap: butt; stroke-dashoffset: 0; stroke-linejoin: miter; stroke-miterlimit: 4; fill: rgb(0,0,0); fill-rule: nonzero; opacity: 1;"  transform=" translate(-569.94, -499.06)" d="M 538.174 486.64 c -0.007 0.017 -0.014 0.035 -0.022 0.052 c -0.591 1.428 0.057 3.069 1.476 3.68 c 81.123 34.905 84.263 27.218 2.188 -5.298 C 540.381 484.505 538.764 485.212 538.174 486.64 z" stroke-linecap="round" />
</g>
	<g transform="matrix(1 0 0 1 179.83 -1.88)"  >
<path style="stroke: none; stroke-width: 1; stroke-dasharray: none; stroke-linecap: butt; stroke-dashoffset: 0; stroke-linejoin: miter; stroke-miterlimit: 4; fill: rgb(0,0,0); fill-rule: nonzero; opacity: 1;"  transform=" translate(-584.87, -433.2)" d="M 552.903 435.95 c 88.541 1.422 88.537 -6.653 0.012 -5.562 c -1.383 0.017 -2.489 1.15 -2.489 2.534 c 0 0.008 0 0.017 0 0.025 c 0 0.158 0 0.315 -0.001 0.473 C 550.419 434.798 551.525 435.928 552.903 435.95 z" stroke-linecap="round" />
</g>
	<g transform="matrix(1 0 0 1 -165.44 63.97)"  >
<path style="stroke: none; stroke-width: 1; stroke-dasharray: none; stroke-linecap: butt; stroke-dashoffset: 0; stroke-linejoin: miter; stroke-miterlimit: 4; fill: rgb(0,0,0); fill-rule: nonzero; opacity: 1;"  transform=" translate(-239.59, -499.06)" d="M 271.445 487.014 c -0.007 -0.017 -0.014 -0.034 -0.02 -0.051 c -0.559 -1.395 -2.126 -2.096 -3.529 -1.556 c -82.303 31.747 -79.321 39.217 2.077 5.168 C 271.358 489.996 272.004 488.408 271.445 487.014 z" stroke-linecap="round" />
</g>
	<g transform="matrix(1 0 0 1 -163.07 -69.06)"  >
<path style="stroke: none; stroke-width: 1; stroke-dasharray: none; stroke-linecap: butt; stroke-dashoffset: 0; stroke-linejoin: miter; stroke-miterlimit: 4; fill: rgb(0,0,0); fill-rule: nonzero; opacity: 1;"  transform=" translate(-241.96, -366.03)" d="M 273.723 378.443 c 0.007 -0.017 0.014 -0.035 0.022 -0.052 c 0.591 -1.428 -0.057 -3.07 -1.476 -3.68 c -81.123 -34.905 -84.263 -27.218 -2.189 5.298 C 271.516 380.578 273.133 379.872 273.723 378.443 z" stroke-linecap="round" />
</g>
	<g transform="matrix(1 0 0 1 -62.56 -165.63)"  >
<path style="stroke: none; stroke-width: 1; stroke-dasharray: none; stroke-linecap: butt; stroke-dashoffset: 0; stroke-linejoin: miter; stroke-miterlimit: 4; fill: rgb(0,0,0); fill-rule: nonzero; opacity: 1;"  transform=" translate(-342.47, -269.46)" d="M 354.512 301.314 c 0.017 -0.007 0.034 -0.014 0.051 -0.02 c 1.395 -0.559 2.096 -2.126 1.555 -3.529 c -31.747 -82.303 -39.217 -79.321 -5.167 2.077 C 351.531 301.227 353.119 301.872 354.512 301.314 z" stroke-linecap="round" />
</g>
	<g transform="matrix(1 0 0 1 -177.88 -2.39)"  >
<path style="stroke: none; stroke-width: 1; stroke-dasharray: none; stroke-linecap: butt; stroke-dashoffset: 0; stroke-linejoin: miter; stroke-miterlimit: 4; fill: rgb(0,0,0); fill-rule: nonzero; opacity: 1;"  transform=" translate(-227.15, -432.69)" d="M 259.113 429.943 c -88.541 -1.422 -88.537 6.653 -0.012 5.562 c 1.383 -0.017 2.489 -1.15 2.489 -2.534 c 0 -0.008 0 -0.017 0 -0.025 c 0 -0.158 0 -0.315 0.001 -0.473 C 261.597 431.095 260.492 429.965 259.113 429.943 z" stroke-linecap="round" />
</g>
	<g transform="matrix(1 0 0 1 166.9 -69.06)"  >
<path style="stroke: none; stroke-width: 1; stroke-dasharray: none; stroke-linecap: butt; stroke-dashoffset: 0; stroke-linejoin: miter; stroke-miterlimit: 4; fill: rgb(0,0,0); fill-rule: nonzero; opacity: 1;"  transform=" translate(-571.93, -366.02)" d="M 540.078 378.069 c 0.007 0.017 0.014 0.034 0.02 0.051 c 0.559 1.395 2.127 2.096 3.529 1.555 c 82.303 -31.747 79.321 -39.217 -2.077 -5.167 C 540.165 375.087 539.519 376.675 540.078 378.069 z" stroke-linecap="round" />
</g>
	<g transform="matrix(1 0 0 1 68.61 166.26)"  >
<path style="stroke: none; stroke-width: 1; stroke-dasharray: none; stroke-linecap: butt; stroke-dashoffset: 0; stroke-linejoin: miter; stroke-miterlimit: 4; fill: rgb(0,0,0); fill-rule: nonzero; opacity: 1;"  transform=" translate(-473.64, -601.34)" d="M 461.598 569.484 c -0.017 0.007 -0.034 0.014 -0.051 0.02 c -1.395 0.559 -2.096 2.127 -1.555 3.529 c 31.747 82.303 39.217 79.321 5.167 -2.077 C 464.58 569.572 462.992 568.926 461.598 569.484 z" stroke-linecap="round" />
</g>
	<g transform="matrix(1 0 0 1 69.74 -168.6)"  >
<path style="stroke: none; stroke-width: 1; stroke-dasharray: none; stroke-linecap: butt; stroke-dashoffset: 0; stroke-linejoin: miter; stroke-miterlimit: 4; fill: rgb(0,0,0); fill-rule: nonzero; opacity: 1;"  transform=" translate(-474.78, -266.49)" d="M 462.358 298.249 c 0.017 0.007 0.035 0.014 0.052 0.022 c 1.428 0.591 3.07 -0.057 3.68 -1.476 c 34.905 -81.123 27.218 -84.263 -5.298 -2.189 C 460.224 296.042 460.93 297.659 462.358 298.249 z" stroke-linecap="round" />
</g>
	<g transform="matrix(1 0 0 1 -66.44 164.84)"  >
<path style="stroke: none; stroke-width: 1; stroke-dasharray: none; stroke-linecap: butt; stroke-dashoffset: 0; stroke-linejoin: miter; stroke-miterlimit: 4; fill: rgb(0,0,0); fill-rule: nonzero; opacity: 1;"  transform=" translate(-338.59, -599.93)" d="M 351.012 568.165 c -0.017 -0.007 -0.035 -0.014 -0.052 -0.022 c -1.428 -0.591 -3.07 0.057 -3.68 1.476 c -34.905 81.123 -27.218 84.263 5.298 2.189 C 353.146 570.372 352.44 568.755 351.012 568.165 z" stroke-linecap="round" />
</g>
	<g transform="matrix(1 0 0 1 1.21 179.19)"  >
<path style="stroke: none; stroke-width: 1; stroke-dasharray: none; stroke-linecap: butt; stroke-dashoffset: 0; stroke-linejoin: miter; stroke-miterlimit: 4; fill: rgb(0,0,0); fill-rule: nonzero; opacity: 1;"  transform=" translate(-406.25, -614.27)" d="M 403.498 582.31 c -1.422 88.541 6.653 88.537 5.562 0.012 c -0.017 -1.383 -1.15 -2.489 -2.534 -2.489 c -0.008 0 -0.017 0 -0.025 0 c -0.158 0 -0.315 0 -0.473 -0.001 C 404.651 579.826 403.52 580.932 403.498 582.31 z" stroke-linecap="round" />
</g>
	<g transform="matrix(1 0 0 1 -126.28 122.09)"  >
<path style="stroke: none; stroke-width: 1; stroke-dasharray: none; stroke-linecap: butt; stroke-dashoffset: 0; stroke-linejoin: miter; stroke-miterlimit: 4; fill: rgb(0,0,0); fill-rule: nonzero; opacity: 1;"  transform=" translate(-278.75, -557.17)" d="M 299.112 533.383 c -64.175 60.689 -58.403 66.665 3.998 4.106 c 1.09 -1.093 1.083 -2.856 0.007 -3.963 c -0.013 -0.013 -0.026 -0.027 -0.039 -0.04 C 302 532.376 300.235 532.32 299.112 533.383 z" stroke-linecap="round" />
</g>
	<g transform="matrix(1 0 0 1 127.1 127.44)"  >
<path style="stroke: none; stroke-width: 1; stroke-dasharray: none; stroke-linecap: butt; stroke-dashoffset: 0; stroke-linejoin: miter; stroke-miterlimit: 4; fill: rgb(0,0,0); fill-rule: nonzero; opacity: 1;"  transform=" translate(-532.13, -562.52)" d="M 508.339 542.161 c 60.689 64.175 66.665 58.403 4.106 -3.998 c -1.093 -1.091 -2.856 -1.083 -3.963 -0.007 c -0.013 0.013 -0.027 0.026 -0.04 0.039 C 507.332 539.273 507.277 541.037 508.339 542.161 z" stroke-linecap="round" />
</g>
</g>
<g transform="matrix(4.49 -1.41 1.41 4.49 428.01 416.83)" style=""  >
		<text xml:space="preserve" font-family="Lemon Milk Bold" font-size="32" font-style="normal" font-weight="normal" style="stroke: rgb(255,255,255); stroke-width: 4; stroke-dasharray: none; stroke-linecap: butt; stroke-dashoffset: 0; stroke-linejoin: miter; stroke-miterlimit: 4; fill: rgb(0,0,0); fill-rule: nonzero; opacity: 1; white-space: pre;" ><tspan x="-49.05" y="10.05" >SALE!</tspan></text>
</g>
<g transform="matrix(4.49 -1.41 1.41 4.49 425.93 416.82)" style="filter: url(#SVGID_5);"  >
<filter id="SVGID_5" y="-45%" height="190%" x="-25%" width="150%" >
	<feGaussianBlur in="SourceAlpha" stdDeviation="1.5"></feGaussianBlur>
	<feOffset dx="2.32" dy="5.97" result="oBlur" ></feOffset>
	<feFlood flood-color="rgb(75,166,225)" flood-opacity="1"/>
	<feComposite in2="oBlur" operator="in" />
	<feMerge>
		<feMergeNode></feMergeNode>
		<feMergeNode in="SourceGraphic"></feMergeNode>
	</feMerge>
</filter>
		<text xml:space="preserve" font-family="Lemon Milk Bold" font-size="32" font-style="normal" font-weight="normal" style="stroke: rgb(215,0,51); stroke-width: 0; stroke-dasharray: none; stroke-linecap: butt; stroke-dashoffset: 0; stroke-linejoin: miter; stroke-miterlimit: 4; fill: rgb(215,0,51); fill-rule: nonzero; opacity: 1; white-space: pre;" ><tspan x="-49.05" y="10.05" >SALE!</tspan></text>
</g>
</svg>